<?xml version="1.0" standalone="no"?>
<!DOCTYPE svg PUBLIC "-//W3C//DTD SVG 20010904//EN"
 "http://www.w3.org/TR/2001/REC-SVG-20010904/DTD/svg10.dtd">
<svg version="1.0" xmlns="http://www.w3.org/2000/svg"
 width="300.000000pt" height="300.000000pt" viewBox="0 0 300.000000 300.000000"
 preserveAspectRatio="xMidYMid meet">
<metadata>
Created by potrace 1.11, written by Peter Selinger 2001-2013
</metadata>
<g transform="translate(0.000000,300.000000) scale(0.100000,-0.100000)"
fill="#000000" stroke="none">
<path d="M730 2240 c-221 -48 -385 -149 -495 -305 -99 -140 -137 -272 -131
-455 6 -167 47 -294 133 -414 116 -160 271 -256 498 -307 122 -28 329 -20 450
15 337 100 542 362 570 728 9 120 45 201 119 266 145 128 358 102 462 -56 44
-68 59 -125 58 -222 -1 -72 -6 -95 -31 -150 -37 -80 -111 -151 -185 -176 -63
-20 -184 -16 -222 9 -45 30 -59 22 -84 -42 -28 -72 -88 -167 -152 -242 -27
-30 -45 -61 -41 -67 8 -13 84 -47 126 -56 17 -3 41 -9 55 -12 62 -14 327 -13
405 2 384 75 643 372 643 739 0 168 -36 292 -124 425 -107 163 -295 280 -519
326 -53 10 -279 13 -330 4 -91 -17 -104 -20 -177 -46 -277 -100 -460 -338
-483 -627 -12 -147 -16 -173 -39 -224 -33 -70 -94 -133 -163 -168 -81 -42
-185 -45 -261 -8 -271 129 -261 549 14 653 78 29 174 27 239 -5 28 -14 55 -25
61 -25 6 0 23 30 38 66 32 78 82 159 142 230 24 28 44 58 44 67 0 19 -42 39
-145 68 -103 30 -357 35 -475 9z"/>
</g>
</svg>
